<svg xmlns="http://www.w3.org/2000/svg" xml:space="preserve" fill-rule="evenodd" stroke-linejoin="round"
  stroke-miterlimit="2" clip-rule="evenodd" viewBox="0 0 1146 417">
  <path fill="#3c5aa6"
    d="m1050.34 127.438-8.468 34.899-7.82-38.643-104.715-23.05.733 58.227 15.781 3.539-1.139 10.502c-.204-.081-.332-.205-.443-.295-19.562-10.322-43.815-11.38-66.639-2.758-7.658 2.929-14.766 6.779-21.213 11.461L840.62 81.598h-69.641l-1.919 11.465h-73.299l-8.37 51.264-6.08-7.509c-17.763-21.822-43.513-33.842-72.038-34.438l62.235-33.45-43.397-64.763-78.407 90.346 13.533 16.501c-12.259 5.01-22.969 11.917-31.842 20.261l-67.228-59.646-23.506 45.051.904-43.294-105.108 33.577 2.695 56.47 17.882-4.639 2.644 28.619c-20.432-9.176-44.992-8.95-67.769.674-6.75 2.942-13.043 6.557-18.842 10.761 3.94-17.434 3.006-34.622-3.637-49.95-7.846-18.113-21.652-33.083-38.579-42.528-11.866-7.905-26.01-12.829-40.809-14.505-36.371-6.357-80.045.17-123.029 18.484-15.801 6.741-30.541 14.39-43.836 22.858L6.373 143.862l10.148 17.137 31.493 53.225s9.636 16.309 9.7 16.3l17.03-8.369 2.375-1.092 78.254 174.65 7.547 16.787 17.473-5.628 42.339-13.563 18.557-5.897-4.895-18.889-22.488-86.321c6.469-4.788 12.506-9.867 18.079-15.184-1.258 10.315-.597 20.757 2.243 30.751 5.88 20.927 19.583 37.458 38.6 46.616 20.539 9.871 45.597 9.897 68.78.064 11.627-4.933 21.967-12.13 30.729-20.696l3.194 34.379 74.148-10.92-.116-66.485 154.935 76.574v-74.144c6.217-.52 12.561-1.501 18.94-3.066 17.064-4.123 31.667-9.777 44.642-17.55l-6.507 39.82 83.537 13.146 4.584-30.06 21.818 40.306 13.337-25.698 4.874 42.194 94.712 16.697-5.023-31.863c12.966 1.467 26.632-.273 39.833-5.253 3.125-1.156 6.212-2.563 9.167-4.072l-3.774 33.902 63.037 8.894.469 25.851 65.731 20.633 85.579-257.94-89.114-21.66Zm-859.774 97.919c-2.912-9.504-9.299-30.026-9.299-30.026.03.094-1.258-4.392-2.784-9.526 5.653-1.01 11.085-.601 15.554 1.548 2.499 1.19 6.89 3.966 7.85 9.227 2.208 11.828-1.778 20.27-11.321 28.777Zm314.691-10.315-21.383-8.25 19.934-19.375c-.853 8.894-.414 18.194 1.449 27.625Zm69.902-15.648c-4.703-8.634-3.753-19.596 3.278-27.28 6.763-7.368 17.124-9.465 25.959-6.059l-29.237 33.339ZM680.27 165.77l4.345-4.618-5.249 32.52-13.691-12.331 14.595-15.571Z" />
  <path fill="#ffcb05" fill-rule="nonzero"
    d="m190.33 273.308 26.176 100.434-42.365 13.533-86.935-194.149c-4.729 2.486-13.461 6.656-21.481 10.587l-31.48-53.178c12.518-7.995 26.248-15.081 40.851-21.251 40.984-17.43 80.088-22.632 111.363-17.106 11.064 1.245 22.777 4.507 33.036 11.316 14.075 7.926 24.841 19.208 31.049 33.578 15.141 34.988-10.152 85.34-60.214 116.236Zm851.191 109.703-36.345-10.825-3.168-133.995-18.279 103.368-39.649-6.328 2.84-29.761c25.89-21.878 39.615-56.389 32.094-87.665-3.305-13.848-10.425-25.907-20.462-35.074l3.347-35.1-14.992-3.99 1.002-18.74 68.311 13.73 22.969 108.923 23.558-97.654 51.967 11.482-73.193 221.629Zm-456.438-56.572L431.351 249.55l.273 80.56-39.768 5.424-2.772-33.207c12.28-21.055 16.77-45.866 10.361-68.618-3.517-12.505-10.015-23.361-18.846-32.059l-5.705-67.705-17.857 4.63-.789-17.119 63.864-19.017 3.914 65.868 47.047-66.102 45.994 43.802-64.32 67.761 60.427 23.903c6.75 12.791 17.047 23.659 29.966 31.667 12.489 7.709 26.798 12.267 41.935 13.764l.008 43.337Zm223.293-.32-13.926-92.248-19.695 50.889-29.488-63.603h-.333l-11.653 73.657-49.149-8.553 6.912-41.103c1.854-1.744 3.679-3.492 5.474-5.338l15.93-16.403-15.482-13.866 16.45-97.885h49.588l12.412 67.761 13.909-78.527h35.47l14.719 95.672c-18.731 21.336-27.83 50.018-21.57 76.258 4.839 20.343 17.34 36.724 35.261 46.292 1.804.909 3.671 1.808 5.599 2.584l1.876 12.404-52.304-7.991Zm-423.27-70.685c-.486 14.953-5.978 29.936-15.171 42.612-8.745 12.259-20.961 22.377-35.334 28.564-36.754 15.571-73.508 0-83.328-34.896-9.512-33.739 12.621-73.904 48.233-89.246 22.743-9.602 45.563-7.325 61.91 3.782 10.097 6.848 17.797 17.145 21.392 30.048.452 1.368.75 2.805 1.053 4.212 1.028 4.916 1.441 9.956 1.245 14.924Zm545.748 40.63c-5.42 3.858-11.385 7.137-17.797 9.504-12.66 4.822-25.251 5.824-36.469 3.594-7.82-1.543-14.949-4.592-21.153-9.005-9.866-7.138-17.132-17.678-20.334-30.913-3.735-15.9-.294-32.878 8.259-47.75 4.264-7.27 9.734-14.101 16.207-19.989 7.219-6.473 15.588-11.773 24.901-15.354 21.673-8.084 43.047-5.296 58.094 5.521 5.535 3.923 10.127 8.916 13.747 14.719 2.746 4.584 4.878 9.636 6.17 15.154 4.609 19.093-.879 39.542-12.924 56.018-5.159 7.022-11.448 13.333-18.701 18.501ZM353.14 230.622c0 10.217-9.291 18.403-20.671 18.403-11.41 0-20.667-8.191-20.667-18.403 0-9.521 8.144-17.37 18.582-18.283-2-.362-4.08-.571-6.229-.571-19.068 0-34.111 14.143-34.111 30.985 0 17.972 15.047 32.068 33.804 32.068 19.085 0 34.115-14.104 34.115-32.068 0-6.221-2.056-12.084-5.59-16.91.477 1.454.767 3.065.767 4.779Zm319.42 4.563c-14.753 12.203-31.569 20.159-53.788 25.527-4.857 1.113-9.615 1.923-14.271 2.333-35.266 3.466-64.853-12.728-76.079-38.993-1.399-3.181-2.478-6.4-3.292-9.837-5.193-22.12-.759-41.892 10.169-57.382 3.147-4.52 6.882-8.639 11.078-12.348 10.292-9.185 23.433-15.862 38.374-19.452 33.595-8.101 63.181 2.153 81.319 24.411l-64.017 68.14c4.341.818 11.244-.32 16.339-1.54 15.248-3.718 23.78-11.81 31.297-20.628l25.583 23.016 7.751 7.001c-3.359 3.475-6.89 6.754-10.463 9.752Zm259.159-25.101c.405 1.616.614 3.215.563 4.916-.443 10.173-10.007 18.027-21.408 17.494-11.393-.392-20.343-9.039-19.895-19.187.383-9.513 8.86-17.042 19.327-17.524-1.987-.448-4.063-.682-6.229-.759-19.072-.823-34.661 12.685-35.317 29.501-.734 17.985 13.682 32.648 32.452 33.463 19.097.763 34.677-12.792 35.436-30.691.222-6.204-1.611-12.152-4.929-17.213Zm-714.663-16.356c-3.833-20.569-30.729-31.907-57.395-17.363l6.873 23.541 10.813 34.788 4.933 15.845c20.006-12.864 40.114-28.321 34.776-56.811Zm403.507-32.636c-14.907-13.674-38.076-12.612-51.674 2.281-13.678 14.868-12.603 38.051 2.324 51.669 1.215 1.173 2.529 2.132 3.851 3.075l48.083-54.454c-.849-.886-1.702-1.769-2.584-2.571Zm4.204-128.166 22.948 31.173-65.608 32.524-4.532-6.886 47.192-56.811Z" />
</svg>
