<svg xmlns="http://www.w3.org/2000/svg" xml:space="preserve" fill-rule="evenodd" stroke-linejoin="round"
  stroke-miterlimit="2" clip-rule="evenodd" viewBox="0 0 267 267">
  <circle cx="133.333" cy="133.333" r="125" />
  <path fill="#e4000f"
    d="M29.682 122.917c5.229-52.604 49.673-93.75 103.651-93.75 53.979 0 98.423 41.146 103.651 93.75h-63.206c-4.631-18.012-20.994-31.341-40.445-31.341s-35.814 13.329-40.445 31.341H29.682Z" />
  <path fill="#fff"
    d="M29.682 143.75h63.206c4.631 18.012 20.994 31.34 40.445 31.34s35.814-13.328 40.445-31.34h63.206c-5.228 52.604-49.672 93.75-103.651 93.75-53.978 0-98.422-41.146-103.651-93.75Zm103.651-31.279c11.515 0 20.863 9.348 20.863 20.862 0 11.515-9.348 20.863-20.863 20.863-11.514 0-20.862-9.348-20.862-20.863 0-11.514 9.348-20.862 20.862-20.862Z" />
</svg>
